<?xml version="1.0" encoding="utf-8"?>
<!-- Generator: Adobe Illustrator 25.2.1, SVG Export Plug-In . SVG Version: 6.00 Build 0)  -->
<svg version="1.1" id="ae7ad495-543d-4c4b-9483-8059c5566fe6"
	 xmlns="http://www.w3.org/2000/svg" xmlns:xlink="http://www.w3.org/1999/xlink" x="0px" y="0px" viewBox="0 0 1009.5 839.6"
	 style="enable-background:new 0 0 1009.5 839.6;" xml:space="preserve">
<style type="text/css">
	.st0{opacity:0.1;fill:#4E73DF;enable-background:new    ;}
	.st1{fill:#D0DBFC;}
	.st2{fill:#84C4E2;}
	.st3{fill:#AEE4F4;}
	.st4{fill:#4E9DC4;}
	.st5{fill:#F7AB61;}
	.st6{fill:#FFC68D;}
	.st7{fill:#FFE2CF;}
	.st8{fill:#9D99E5;}
	.st9{fill:#726AE4;}
	.st10{fill:#FFCDA4;}
	.st11{fill:#736BE5;}
	.st12{fill:#BDBDFF;}
	.st13{fill:#FFFFFF;}
	.st14{fill:#0065AA;}
	.st15{fill:#3A3768;}
	.st16{fill:#E6E8EC;}
	.st17{opacity:0.1;enable-background:new    ;}
	.st18{fill:#6F6FD8;}
	.st19{fill:#5DCEC1;}
	.st20{fill:#D5E1ED;}
	.st21{fill:#B8DDFF;}
	.st22{opacity:0.5;}
	.st23{fill:#8FA7D7;}
	.st24{fill:#38A595;}
	.st25{opacity:0.5;fill:#8FA7D7;}
	.st26{fill:#FFCCA9;}
	.st27{opacity:0.1;fill:#8FA7D7;}
	.st28{fill:#AE376D;}
	.st29{fill:#A1B5BF;}
	.st30{fill:#F0BA92;}
	.st31{opacity:0.6;}
	.st32{fill:#D88D64;}
	.st33{fill:#D3976E;}
	.st34{opacity:0.1;}
	.st35{fill:#0E3368;}
	.st36{fill:#383F47;}
	.st37{fill:#1A2026;}
	.st38{fill:#BCBCBC;}
	.st39{fill:#444444;}
	.st40{opacity:0.3;}
	.st41{fill:#635B53;}
	.st42{opacity:0.4;}
	.st43{fill:#D3D3D3;}
	.st44{fill:#A8A6A0;}
	.st45{fill:#BABABA;}
	.st46{fill:#AAA9A2;}
	.st47{fill:#2A445D;}
	.st48{fill:#1F384C;}
	.st49{clip-path:url(#SVGID_4_);fill:#FFFFFF;}
	.st50{clip-path:url(#SVGID_6_);fill:#FFFFFF;}
	.st51{fill:#210601;}
	.st52{fill:#302420;}
</style>
<path class="st0" d="M586.6,111.4c-64.7-2.2-126.4-23.1-185.2-46S284.2,17.2,221,5.1C180.4-2.7,133.9-3.8,101.2,18
	C69.7,39,59.5,75.1,54,108.7c-4.1,25.3-6.5,51.9,4.7,75.5c7.8,16.4,21.7,30.2,31.4,46c33.5,54.7,9.8,122.2-26.4,175.6
	c-17,25.1-36.8,49-49.9,75.7c-13.1,26.7-19.2,57.2-7.7,84.5c11.4,27,38.5,47.2,67.9,61.5c59.7,29,130,37.2,198.6,41.9
	c151.8,10.4,304.5,5.9,456.7,1.4c56.3-1.7,112.9-3.4,168.3-12.1c30.8-4.8,62.6-12.5,84.9-31c28.4-23.5,35.4-63.4,16.4-92.9
	c-31.9-49.5-120-61.8-142.3-114.9c-12.3-29.2,0.3-61.8,18.2-88.9c38.2-58.2,102.3-109.2,105.7-175.7c2.3-45.7-28.5-91.4-76.1-113
	c-49.9-22.6-119.2-19.8-156,17.7C710.4,98.5,643.7,113.4,586.6,111.4z"/>
<g id="Background_1">
	<path class="st1" d="M864.7,769.4c0,10.9-160.3,22.7-352.5,22.7c-192.1,0-348.8-9.8-348.8-20.7S864.7,758.5,864.7,769.4z"/>
	<image style="overflow:visible;" width="549" height="488" xlink:href="71BCF766.png"  transform="matrix(1 0 0 1 416 283.64)">
	</image>
	<image style="overflow:visible;" width="487" height="433" xlink:href="71BCF76A.png"  transform="matrix(1 0 0 1 73 338.64)">
	</image>
</g>
<g id="Flower">
	<g>
		<path class="st2" d="M716.9,380.8c0,0-14.8,6.1-35.1,19.8c-3.4,2.3-7.6,34.3-7.6,34.3s-3.3-27.9-5.3-26.3
			c-13.1,10.3-27.8,23.8-41.8,40.4c-1.6,1.9,15.7,23.5,14.2,25.4c-1.7,2.1-22.3-15.4-24-13.1c-20.8,27.5-75,103.1-82.9,144.6
			l55.3,22.8c65.6,6.5,87-15.8,95.1-32.5c1.4-3-55.2-10.7-55.2-10.7s62.2-4,63.5-6.8c9.7-20.8,19.7-44.3,26.6-65.3
			c1-3.1-64.5-0.4-63.6-3.4c0.4-1.3,67.3-8.5,67.6-9.8c2.8-9.9,4.6-18.9,5-26.3c0.1-2.5-51.2,0.7-51.2,0.7s50.8-11.4,51.5-18.2
			C731.6,433.7,725.1,408.3,716.9,380.8z"/>
	</g>
	<g>
		<path class="st3" d="M627.6,570.3l48.3-102.5c-0.2-1.2-0.3-2.4-0.4-3.6c-0.5-4.2-0.9-8.3-1.4-12.5c-1.2-10.3-1.8-20.6-3.1-30.9
			c-1.5-12.3-2.1-12.1-2.1-12.1c1.5-0.7,2.7,7.8,3.3,10.9c0.9,4.8,1.4,9.1,2.1,14c1.5,9.7,3,19.3,4.1,29c0,0,0,0,0,0l38.5-81.7
			c0,0-19.6,48.1-37.7,90c0.1,0,0.3-0.1,0.4-0.1c1.4-0.5,34.2-1.9,49.5-14.7l-0.4,1.6c-15,14.9-49.8,16.9-51.1,17.1
			c-6.1,14.1-8.2,18.5-14.4,32c0.7,0.1,1.8-0.1,2.5-0.2c1.4-0.2,2.7-0.3,4.1-0.5c4.8-0.6,9.7-1.2,14.5-1.8
			c11.2-1.4,22.5-2.3,33.7-3.5c2.6-0.3,4.4-0.3,4.4-0.3s-11.1,2.4-18.4,3.6c-11,1.9-22.1,3.6-33.1,5.3c-1.5,0.2-3.1,0.5-4.6,0.7
			c-1.6,0.3-3.3,0.6-4.6-0.1C646.5,542.6,632.9,568.9,627.6,570.3z"/>
	</g>
	<g>
		<path class="st4" d="M693,578.7l-69.9,4.1l-0.8,3.7C622.4,586.5,677,582,693,578.7z"/>
	</g>
	<path class="st3" d="M627.1,449l37.3,46.7l-4.3,8.9C660.1,504.5,626.3,454.1,627.1,449z"/>
	<g>
		<path class="st5" d="M232.2,325.3c0,0,18.3,9.6,42.9,29.7c4.2,3.4-2.7,74.7-2.7,74.7s16-65.1,18.4-62.9
			c16.2,15.3,34.2,35.1,50.8,59.2c1.1,1.6-12.8,22.6-11.7,24.2c26.3,39.4,63.6,70.1,69.2,129c0,0,3.9,36-0.1,33.7
			c-4-2.3-102.8,77-102.8,77s-13.2-21.3-28.9-48.9c-2.1-3.7,38.1-22.1,35.9-25.9c-1.5-2.7-45.3,9.2-46.8,6.4
			c-15.9-28.9-31.9-60.6-38.2-81.3c-0.8-2.6,41.8-2.5,41-5.2c-0.9-3.3-45.9-12.9-45.9-12.9c-5.3-22.6-8.6-48.9-7.5-78.5
			c0.1-3.3,57.3,8.5,57.3,8.5s-56.1-26.8-55.6-31C210.7,391.6,218.3,359.6,232.2,325.3z"/>
	</g>
	<g>
		<path class="st6" d="M232.2,325.3c0,0,18.3,9.6,42.9,29.7c4.2,3.4-2.7,74.7-2.7,74.7s16-65.1,18.4-62.9
			c16.2,15.3,34.2,35.1,50.8,59.2c1.1,1.6-7.5,15.2-6.4,16.9c26.3,39.4,58.3,77.5,63.9,136.4c0,0,3.9,36-0.1,33.7
			c-4-2.3-87.9-57.2-87.9-57.2L232.2,325.3z"/>
	</g>
	<g>
		<path class="st7" d="M232.2,325.3c0,0,58.8,188.1,65.2,206.2c1.6,4.5-81.4-8.7-84.1-9.5c0.2,0.3,83.1,27.1,85.7,14
			c15.5,43.6,19,40.8,25.7,43.2L232.2,325.3z"/>
	</g>
	<g>
		<path class="st7" d="M226.7,433.6c0.7,0,47.6,22.6,47.6,22.6l2.2,5.1L226.7,433.6z"/>
	</g>
	<g>
		<polygon class="st7" points="282.3,391.5 270.3,437.5 270.9,442.8 		"/>
	</g>
	<g>
		<path class="st8" d="M393.2,752.2c-12.9,12.3-56.2,6-88.9-6.9c-7.6-3-17.2-7.3-27.7-13.2c6.8-0.4,49.8-5.3,39.4-69.2
			c-0.5-2.8-35,33.3-40.2,68.7c-14.1-7.9-28.5-17.3-50.2-37.9c-5-4.8-21.5-23.7-31-38.9c6.4-3.1,35.4-19.2,51.6-61.9
			c1-2.7-49.6,13.6-52.8,60.1c-8.5-13.9-16-29.7-21.9-47.5c0.1,0,0.1-0.1,0.2-0.1c-0.2-0.5-0.3-1-0.5-1.5c-0.1-0.3-0.1-0.6-0.2-0.9
			c0,0.3,0,0.5-0.1,0.7c-3.6-11.1-6.5-22.9-8.7-35.6c2.8-3,12.4-16.7,3.2-60.2c-0.6-2.7-14.9,20.2-5.9,54.4
			c2.1,14.3,5.2,27.6,9.1,39.9c-40.5-31.6-58.4,0.4-58.4,0.4c22.8,9.1,55.1,2.6,58.7,0.5c6,19,13.8,35.6,22.8,50.3
			c0,0,3.1,4.9,3.6,5.7c9.7,14.8,20.4,27.5,31.5,38.2c0,0,0,0.1,0,0.1c0,0,0,0,0.1,0c0.4,0.4,0.8,0.8,1.3,1.2
			c-48.3-10.6-78.5,8.9-78.5,8.9c36,23.2,74.4-0.7,80.7-6.9c12.1,11.2,24.5,20.2,36,27.3c2.3,1,4.5,2.3,6.4,3.9c0,0,0,0,0,0
			c11.8,6.8,22.5,11.6,30.8,14.9c24.1,9.5,46.2,13.6,63,13.6c13.2,0,23.1-2.6,27.8-7.1L393.2,752.2z"/>
	</g>
	<g>
		<g>
			<path class="st9" d="M272.8,732c-34.5-14.7-68.9,6.7-68.9,6.7c33.8,19.6,61.1,2.1,68.8-5.6C274.2,731.9,272.8,732.1,272.8,732z"
				/>
		</g>
		<g>
			<path class="st9" d="M215.6,550.1c1-2.6-39.5,11.3-44.8,53.6c0.2,0.1,0.4,1.2,0.6,1.7C178.4,602.4,200.7,589.5,215.6,550.1z"/>
		</g>
		<g>
			<path class="st9" d="M193.8,656.9c-40-33.5-67-4.9-67-4.9c23.2,11.5,59.6,9.6,68.4,7.2C195.2,659.2,193.8,657.1,193.8,656.9
				C193.8,656.9,193.8,656.9,193.8,656.9z"/>
		</g>
		<g>
			<path class="st9" d="M267,628.3c-0.4-2.7-31.3,34.6-38.2,68.8c0.3,0,0.6,0.3,1.1,0.7C242.2,695.8,276.2,684.8,267,628.3z"/>
		</g>
	</g>
	<g>
		<path class="st5" d="M589.1,649.7c10.6,9.9,45.6,4.5,72-6.1c6.2-2.5,13.9-6,22.3-10.8c-5.5-0.3-40.3-4-32.3-55.8
			c0.4-2.3,28.6,26.8,33,55.4c11.4-6.5,23-14.2,40.4-31c4-3.9,17.3-19.3,24.9-31.7c-5.2-2.5-28.8-15.4-42.2-49.8
			c-0.8-2.1,40.3,10.7,43.1,48.3c6.8-11.3,12.8-24.1,17.5-38.6c-0.1,0-0.1,0-0.2-0.1c0.1-0.4,0.3-0.8,0.4-1.2
			c0.1-0.2,0.1-0.5,0.2-0.7c0,0.2,0,0.4,0.1,0.6c2.8-9,5.1-18.6,6.8-28.9c-2.3-2.4-10.1-13.5-2.9-48.7c0.4-2.2,12.2,16.2,5.1,44
			c-1.7,11.6-4.1,22.4-7.1,32.4c32.6-25.8,47.3,0,47.3,0c-18.4,7.5-44.6,2.4-47.5,0.7c-4.8,15.4-11,28.9-18.1,40.9
			c0,0-2.4,4-2.9,4.6c-7.7,12.1-16.4,22.4-25.3,31.1c0,0,0,0.1,0,0.1c0,0,0,0-0.1,0c-0.3,0.3-0.7,0.7-1,1
			c39.1-8.9,63.6,6.8,63.6,6.8c-29,19-60.2-0.1-65.4-5.1c-9.7,9.2-19.7,16.5-29,22.3c-1.9,0.8-3.6,1.9-5.2,3.2c0,0,0,0,0,0
			c-9.5,5.6-18.1,9.5-24.9,12.3c-19.5,7.8-37.4,11.3-50.9,11.4c-10.7,0.1-18.7-1.9-22.6-5.6L589.1,649.7z"/>
	</g>
	<g>
		<g>
			<path class="st10" d="M687.3,633c0.9-0.5,1.9-1,2.9-1c0.7,0,0.8-0.9,0.4-1.2c0.5-0.3,1-0.7,1.4-1c0.1-0.1,0.1-0.1,0.1-0.2
				c35.6-5.2,50.1,8,50.1,8c-27.2,16-49.4,2.1-55.8-4.1C686.8,633.3,687,633.2,687.3,633z"/>
		</g>
		<g>
			<path class="st10" d="M731.6,485c-0.8-2.1,32.1,8.9,36.6,43.2c-0.2,0.1-0.3,1-0.4,1.4C762.1,527.1,744,516.8,731.6,485z"/>
		</g>
		<g>
			<path class="st10" d="M750,571.3c32.2-27.3,54.2-4.4,54.2-4.4c-18.7,9.4-48.2,8.1-55.4,6.2C748.8,573.2,749.9,571.5,750,571.3
				C750,571.3,750,571.3,750,571.3z"/>
		</g>
		<g>
			<path class="st10" d="M690.5,548.6c0.3-2.2,25.6,27.8,31.4,55.4c-0.2,0-0.5,0.2-0.9,0.6C711,603.1,683.4,594.4,690.5,548.6z"/>
		</g>
	</g>
</g>
<g id="Tas">
	<g>
		<g>
			<path class="st11" d="M829.8,770.7H599.5c-6.3,0-11.4-5.1-11.4-11.4v-135c0-6.3,5.1-11.4,11.4-11.4h230.2
				c6.3,0,11.4,5.1,11.4,11.4v135C841.2,765.6,836.1,770.7,829.8,770.7z"/>
		</g>
	</g>
	<g>
		<g>
			<path class="st8" d="M805.4,771.4H575.1c-6.3,0-11.4-5.1-11.4-11.4v-135c0-6.3,5.1-11.4,11.4-11.4h230.2
				c6.3,0,11.4,5.1,11.4,11.4v135C816.8,766.3,811.7,771.4,805.4,771.4z"/>
		</g>
	</g>
	<g>
		<g>
			<path class="st8" d="M702.8,658.6h-38.9c-24.9,0-45.1-20.2-45.1-45.1c0-24.9,20.2-45.1,45.1-45.1h38.9
				c24.9,0,45.1,20.2,45.1,45.1C748,638.4,727.7,658.6,702.8,658.6z M663.9,587.6c-14.3,0-25.9,11.6-25.9,25.9
				c0,14.3,11.6,25.9,25.9,25.9h38.9c14.3,0,25.9-11.6,25.9-25.9c0-14.3-11.6-25.9-25.9-25.9H663.9z"/>
		</g>
	</g>
	<g>
		<g>
			<path class="st12" d="M563.7,645L563.7,645c0-17.7,14.4-32.1,32.1-32.1H797c17.7,0,21,12.7,19.9,32.1l0,0H563.7z"/>
		</g>
	</g>
	<g>
		<g>
			<path class="st13" d="M725.1,692.2h-26.9v-22.6c0-4.4-3.6-8-8-8c-4.4,0-8,3.6-8,8v22.6h-26.9c-4.4,0-8,3.6-8,8v0c0,4.4,3.6,8,8,8
				h26.9v31.1c0,4.4,3.6,8,8,8c4.4,0,8-3.6,8-8v-31.1h26.9c4.4,0,8-3.6,8-8v0C733.1,695.7,729.5,692.2,725.1,692.2z"/>
		</g>
	</g>
</g>
<g id="HP_Biru">
	<path class="st14" d="M578,771.1H333.7c-24,0-43.4-19.4-43.4-43.4V189.2c0-24,19.4-43.4,43.4-43.4H578c24,0,43.4,19.4,43.4,43.4
		v538.5C621.4,751.6,602,771.1,578,771.1z"/>
	<g>
		<defs>
			<path id="SVGID_1_" d="M595.6,758.1H316.9c-7.6,0-13.7-6.1-13.7-13.7V173.6c0-7.6,6.1-13.7,13.7-13.7h278.7
				c7.6,0,13.7,6.1,13.7,13.7v570.7C609.3,751.9,603.2,758.1,595.6,758.1z"/>
		</defs>
		<clipPath id="SVGID_2_">
			<use xlink:href="#SVGID_1_"  style="overflow:visible;"/>
		</clipPath>
		<g style="clip-path:url(#SVGID_2_);">
			<image style="overflow:visible;" width="366" height="600" xlink:href="71BCF76D.png"  transform="matrix(1 0 0 1 283 158.64)">
			</image>
		</g>
	</g>
	<path class="st14" d="M524.2,178.3H389.5c-8,0-14.5-6.5-14.5-14.5v-9.5h163.7v9.5C538.7,171.8,532.2,178.3,524.2,178.3z"/>
</g>
<g id="HP">
	<path class="st15" d="M619.7,289.8h4.8c1.4,0,2.6,1.1,2.6,2.4v71.6c0,1.3-1.1,2.4-2.6,2.4h-4.8c-1.4,0-2.6-1.1-2.6-2.4v-71.6
		C617.1,290.8,618.3,289.8,619.7,289.8z"/>
	<path class="st15" d="M334,146.8h244.8c24.1,0,43.7,18.3,43.7,40.8v548.8c0,22.5-19.6,40.8-43.7,40.8H334
		c-24.1,0-43.7-18.3-43.7-40.8V187.6C290.2,165,309.8,146.8,334,146.8z"/>
	<path class="st2" d="M575.6,163.1h-38.1v4.3c0,11.2-9.7,20.3-21.7,20.3c0,0,0,0,0,0H394.6c-12,0-21.7-9.1-21.7-20.3c0,0,0,0,0,0
		v-4.3h-35.7c-14.6,0-26.4,11-26.4,24.6v0v548.3c0,13.6,11.8,24.6,26.4,24.6h238.4c14.6,0,26.4-11,26.4-24.6V187.8
		C602,174.2,590.2,163.2,575.6,163.1C575.6,163.1,575.6,163.1,575.6,163.1z"/>
	<path class="st16" d="M428.7,165.6h37.7c2.4,0,4.3,1.8,4.3,4v0.7c0,2.2-1.9,4-4.3,4h-37.7c-2.4,0-4.3-1.8-4.3-4v-0.7
		C424.3,167.4,426.3,165.6,428.7,165.6z"/>
	<ellipse class="st16" cx="483.1" cy="170" rx="5.3" ry="5"/>
	<rect x="340.4" y="223.2" class="st17" width="232" height="459.6"/>
</g>
<g id="Chat">
	<path class="st18" d="M801,252c-4.6-44.5-85-56.8-162-47.7s-80,26.6-78,79.1c0.7,17.2,5.4,30.9,13.1,41.7
		c-4.7,16.1-23.7,19.5-21.1,22c13.6,13,37.5,1.1,43.2-2.1c37.2,21.8,96.1,18.6,138.6,12.6C791.3,349.7,806,300.7,801,252z"/>
	<path class="st13" d="M647.2,280.2c0,4.5-3.7,8.2-8.2,8.2c-4.5,0-8.2-3.7-8.2-8.2c0-4.5,3.7-8.2,8.2-8.2
		C643.5,272,647.2,275.7,647.2,280.2z"/>
	<path class="st13" d="M687.6,280.2c0,4.5-3.7,8.2-8.2,8.2s-8.2-3.7-8.2-8.2c0-4.5,3.7-8.2,8.2-8.2S687.6,275.7,687.6,280.2z"/>
	<path class="st13" d="M726.4,280.2c0,4.5-3.7,8.2-8.2,8.2c-4.5,0-8.2-3.7-8.2-8.2c0-4.5,3.7-8.2,8.2-8.2
		C722.8,272,726.4,275.7,726.4,280.2z"/>
</g>
<g id="Dokter">
	<path class="st19" d="M430,402c0.8-1.3,32.1,14.4,67.3-6.1c35.2-20.5,14.6,195.7,14.6,195.7L509,703.9l-4,54.2h-87.6l-18-170.6
		C399.4,587.5,417.8,421.4,430,402z"/>
	<path class="st13" d="M588.2,433.9c-14.3-12.3-80.2-37.3-80.2-37.3l-10.8,19.2c0,0,3.5,238.2,1.7,287.3l0,54.9h80.4l0.4-124.1
		c23.2-5.9,41.1-15.7,50.9-26.4c11.1-12.2,13.8-19.1,13.8-35.3S602.5,446.2,588.2,433.9z"/>
	<path class="st13" d="M422.7,611.6c0.8-1.2,1.2-1.9,1.2-1.9V398.8c0,0-65.9,25-80.2,37.3c-14.3,12.3-55.9,126.1-56.3,142.3
		c-1.6,64.3,54.4,145.5,54.4,145.5s1.9-0.8,5.2-3.1c-1.1,15-2.9,37.4-2.9,37.4h87.3c0,0,0.3-66.7,0-69.7
		C431.2,686.6,426.5,645,422.7,611.6z"/>
	<g>
		<g>
			<path class="st20" d="M562.8,554.2l-14.7,8.7c-0.3,0.2-0.8,0.2-1.1,0l-15.5-8.7c-0.3-0.2-0.6-0.6-0.6-1v-32.6
				c0-0.6,0.5-1.1,1.1-1.1h30.3c0.6,0,1.1,0.5,1.1,1.1v32.6C563.4,553.6,563.2,554,562.8,554.2z"/>
		</g>
	</g>
	<g>
		<g>
			<path class="st21" d="M562.8,554.2l-14.7,8.7c-0.3,0.2-0.8,0.2-1.1,0l-15.5-8.7c-0.3-0.2-0.6-0.6-0.6-1v-26
				c0-0.6,0.5-1.1,1.1-1.1h30.3c0.6,0,1.1,0.5,1.1,1.1v26C563.4,553.6,563.2,554,562.8,554.2z"/>
		</g>
	</g>
	<g class="st22">
		<g>
			<path class="st23" d="M498.9,705.3V602.2V378.3c0,0,2.8,5.1,12.9,15.3c12.7,12.8,23.5,32.2,23.5,32.2l-22.8-4.4l29.7,29.9
				l-22.3,131.3l-15.8,2.4l10,31.8L498.9,705.3z"/>
		</g>
	</g>
	<g class="st22">
		<path class="st23" d="M413.8,393.4c-12.7,12.8-23.5,32.2-23.5,32.2l22.8-4.4l-29.7,29.9l47.9,247.6l-4.7-320.5
			C426.7,378.1,424,383.2,413.8,393.4z"/>
	</g>
	<g>
		<g>
			<path class="st13" d="M498.9,691.6L498.9,691.6l-5-315.8c0,0,5.1,2.2,15.3,12.5c12.7,12.8,21.1,35.1,21.1,35.1l-22.8-4.4
				l29.7,29.9l-21.3,135.1l-10.9,2.5l8,16L498.9,691.6z"/>
		</g>
	</g>
	<g>
		<g>
			<path class="st13" d="M431.4,688.4V375.8c0,0-5.1,2.2-15.3,12.5c-12.7,12.8-21.1,35.1-21.1,35.1l22.8-4.4l-29.7,29.9L431.4,688.4
				z"/>
		</g>
	</g>
	<path class="st24" d="M466.9,713.9c-19.9,0-35.2-3-35.4-3l0-1.8c0.3,0.1,35.1,6.9,67.4-0.1v1.8C488,713.1,477,713.9,466.9,713.9z"
		/>
	<g>
		<path class="st24" d="M462.5,431c-18,0-30.9-6.3-31.1-6.4v-2.2c0.3,0.2,32.2,15.3,63.3-1.4l0,2.1C483.4,429.2,472.4,431,462.5,431
			z"/>
	</g>
	<path class="st25" d="M316.4,578.4c0,0,23.8,4.6,36.1,16.9C352.6,595.3,321.7,579.9,316.4,578.4z"/>
	<path class="st26" d="M379.5,684.4l5,6c0,0-10,24.6-21.2,37.5l-9-12.6C354.2,715.4,368.1,704.8,379.5,684.4z"/>
	<path class="st25" d="M344.6,578.4c0.6,1,8.6,8.6,11.2,16l-12.6-14.3L344.6,578.4z"/>
	<path class="st25" d="M369.9,495.9c-0.1-1.1-7.3,94.6-10.4,107.1l24.1,73.6c0,0-12.7,28.7-36.5,44.1c0,0,15.2-2.3,39.2-35.4
		c0,0-12,34.2-28.9,48.7c0,0,26.6-15.8,34.4-63.7L366.6,603C366.6,603,371,517.2,369.9,495.9z"/>
	<polygon class="st25" points="579.7,634 568.1,637.4 569.9,647.7 579.7,643.9 	"/>
	<path class="st25" d="M576.9,562.2L576.9,562.2l-8.8-72.1l2.7,74.4c-29.5,11.2-61.4,24.6-61.4,24.6s16.9-4.4,37.7-9.9
		c20.8-5.5,59.3-27.2,59.3-27.2C598.6,554.3,588.1,558,576.9,562.2z"/>
	<path class="st27" d="M617.7,491.9c0,0,18.6,50,18.8,82.5c0.1,12.1-6.8,22.1-11.8,25.7c-48.4,35.2-108.1,36.4-108.1,36.4
		s-0.5,8.1-1.6,9.6c0,0,105.7-7,125.9-52.8c0,0,4.6-7.3,3.5-18.8C642.5,553,630.4,522.7,617.7,491.9z"/>
	<path class="st27" d="M323.4,473.5c0.7-1.9-30.1,76.7-29.8,104.9c0.6,59.4,44.4,134.3,53.4,142.3l-5.2,3.1
		c0,0-58.2-86.4-54.4-145.5C288.2,566.7,289.6,561.5,323.4,473.5z"/>
	<path class="st28" d="M515.3,645.7c3.4-34.8-6.6-56.3-5.4-56.8c11.3-5.1,39.4-16.1,62-24.9l1-51.3L457.3,508l-2.6,170.7l115.1-4.7
		l0.7-37.2C542,643.4,515.3,645.7,515.3,645.7z"/>
	<polygon class="st29" points="534,511.1 534,509.1 502.7,507.3 502.6,509.9 	"/>
	<path class="st29" d="M506.7,513.3c0,0.4-0.3,0.7-0.7,0.7c-0.4,0-0.7-0.3-0.7-0.7s0.3-0.7,0.7-0.7
		C506.4,512.7,506.7,513,506.7,513.3z"/>
	<path class="st29" d="M531.5,514.4c0,0.2-0.2,0.4-0.4,0.4s-0.4-0.2-0.4-0.4c0-0.2,0.2-0.4,0.4-0.4S531.5,514.1,531.5,514.4z"/>
	<g>
		<g>
			<path class="st30" d="M513.2,334.6c-3.3,11.9-9.1,21-11.6,20.3c0,0,1.8-7.6,4.1-19.6c2.7-14,3.1-23.9,8.9-23.4
				C517.2,312.1,516.5,322.8,513.2,334.6z"/>
		</g>
	</g>
	<g class="st31">
		<g>
			<path class="st32" d="M508.8,329.7c-3,11.9-4.7,25.9-7.2,25.2c0,0,2.5-10.8,4.9-22.9c2.7-14,2.5-18.9,8.2-18.3
				C514.7,313.7,512.4,315.2,508.8,329.7z"/>
		</g>
	</g>
	<g>
		<g>
			<path class="st30" d="M412.6,334.6c3.3,11.9,8.8,21,11.3,20.3c0,0-2.7-9.8-4.3-20.1c-2.2-14.1-2.7-23.5-8.4-23
				C408.6,312.1,409.3,322.8,412.6,334.6z"/>
		</g>
	</g>
	<g class="st31">
		<g>
			<path class="st32" d="M415.2,328.4c3,11.9,6.1,27.2,8.6,26.5c0,0-2.7-12.3-5.1-24.4c-2.7-14-2.3-17.3-8-16.8
				C410.8,313.8,411.6,313.9,415.2,328.4z"/>
		</g>
	</g>
	<g>
		<g>
			<path class="st30" d="M494.4,403.6c0,0-4.3,11.5-31.7,11.5c-27.4,0-31.3-10.8-31.3-10.8v-34.8H494L494.4,403.6z"/>
		</g>
	</g>
	<g class="st31">
		<g>
			<path class="st32" d="M494,378.3c-5.6,11.8-27.8,21.1-31.3,21.1c-3.6,0-22.3-7.1-31.3-20.9v-18.2H494L494,378.3z"/>
		</g>
	</g>
	<g>
		<g>
			<path class="st26" d="M501.6,354.9c-10.4,34.3-38.9,34.8-38.9,34.8s-30.1-0.1-39.1-35.7c-5.9-23.5-20.2-59.4-3.1-86.1
				c9.7-15.1,80.1-21.1,88.4,0C517.2,289.1,507.7,334.8,501.6,354.9z"/>
		</g>
	</g>
	<g>
		<path class="st13" d="M478,353.6c1.2,1-2.4,13.4-15.3,13.5c-10.9,0.1-16.4-11.1-15.4-12.8c1.2-2.1,5.6-0.7,15-0.7
			C471.7,353.6,476.7,352.6,478,353.6z"/>
		<path class="st33" d="M462.5,367.7c-7,0-12.1-4.6-14.6-8.8c-1-1.7-1.8-3.9-1.2-4.9c1-1.7,3.3-1.6,7.6-1.3c2.1,0.1,4.7,0.3,7.9,0.3
			c3.8,0,6.9-0.2,9.4-0.3c3.9-0.2,5.8-0.3,6.7,0.4l0,0c0.9,0.7,0.2,3-0.1,3.9c-0.6,1.8-4.3,10.6-15.6,10.7
			C462.7,367.7,462.6,367.7,462.5,367.7z M450.7,353.8c-1.5,0-2.5,0.2-2.9,0.8c-0.1,0.3,0.1,1.9,1.6,4.3c1.1,1.8,5.5,7.5,13.1,7.5
			c0.1,0,0.1,0,0.2,0c7.4-0.1,11.3-4.4,12.9-7c1.6-2.6,2.1-4.9,1.9-5.4c-0.6-0.4-2.9-0.3-5.8-0.1c-2.5,0.1-5.6,0.3-9.5,0.3
			c-3.3,0-5.9-0.2-8-0.3C452.8,353.9,451.7,353.8,450.7,353.8z"/>
	</g>
	<g>
		<path class="st32" d="M462.7,343.2c-1.5-1.1-3.8-3.5-2.5-7.5c1.2-3.5,1.3-10.1,1.3-10.2l1.3,0c0,0.3-0.2,6.9-1.4,10.6
			c-1,3.1,0.5,5,2,6.1L462.7,343.2z"/>
	</g>
	<path class="st26" d="M512.1,598.6l-11.8,1.8c-15.1,1.3-20.6-10.3-33.9-8.6c-13.3,1.7-11.7,7-11.7,7c-8.8,0.2-6.5,12.5-6.5,12.5
		c-4.2,6.2,0.2,13.4,0.2,13.4c-3,4.3,1,10.8,1,10.8c1.1,7.1,9.7,12.9,18.9,13.9c0.3,0,0.6,0.1,0.9,0.1c0.3,0,0.7,0,1,0.1
		c0.3,0,0.7,0,1,0c0.5,0,1,0,1.5-0.1c0,0,0.1,0,0.1,0l0,0c0,0,0.1,0,0.1,0c0.4,0,0.8-0.1,1.2-0.1c11.1-1.5,41.8-13.9,41.8-13.9
		C516.4,611.4,512.1,598.6,512.1,598.6z"/>
	<path class="st32" d="M454.7,598.8c0,0,7.6,1.5,11.8,1.8c4.1,0.3,13.7,1.9,16,2.4c0,0-12.4-1-16.1-1.3
		C463.6,601.5,453.5,598.9,454.7,598.8z"/>
	<path class="st32" d="M457.1,614.6c0,0-5.6-2.3-7.3-4.5c-1.6-2.2-1.7-4.8-1.8-4.6c-0.5,2.2,0.1,5.8,0.1,5.8L457.1,614.6z"/>
	<path class="st32" d="M457.3,627.9c0,0-5.3-2.4-7.5-4.1c-2.4-1.9-3.3-4.9-3.3-4.8c0.3,2.9,1.9,5.5,1.9,5.5L457.3,627.9z"/>
	<path class="st32" d="M458.3,638.8c0,0-5.3-2.4-7.5-4.1c-2.4-1.9-3.5-5.3-3.5-5.1c0.3,2.9,2.1,5.8,2.1,5.8L458.3,638.8z"/>
	<path class="st32" d="M455.8,595.7c0,0-1.3,3.1,1.1,3.5l0.4,0.6l-2.6-1C454.7,598.8,454.4,597,455.8,595.7z"/>
	<g class="st34">
		<g>
			<g>
				<path class="st35" d="M413.5,453.8l0.6-34.2l-2.9,0.6l-0.6,33.8c-15.5,2.6-18.6,30.1-19.1,65.2c0,0,0,0,0,0l0,2
					c0,7.2,3.8,8.9,8.7,9.7c1.8,0.3,3.6,0.4,5.4,0.4c0.5,1,1.5,1.7,2.7,1.7c1.6,0,2.9-1.3,2.9-2.9v-2.4c0-1.6-1.3-2.9-2.9-2.9
					c-1.5,0-2.6,1.1-2.8,2.5c-3.9-0.2-8.7-1-10.2-3.9c-1.5-2.8-0.6-8.7-0.5-12.8c1-30.7,4.4-54,18.6-54c14.2,0,20.9,23.2,21.9,53.8
					c0.1,3.8,0.8,9.5-0.6,12.3c-1.3,2.6-4.8,3.7-8.3,4.2c-0.4-1.4-1.7-2.3-3.2-2.1c-1.6,0.2-2.7,1.6-2.5,3.3l0.3,2.4
					c0.2,1.6,1.6,2.7,3.3,2.5c1.2-0.1,2.2-1,2.5-2.1c5.6-0.8,11.9-3.2,11.7-10.5l0-2.9c0,0,0-0.1,0-0.1
					C437.5,481.6,430.5,454.1,413.5,453.8z"/>
			</g>
		</g>
		<g>
			<g>
				<path class="st35" d="M552.2,481.4c-2.9-67.7-34.3-83.1-35.6-83.7c0,0,1.8,1.4,9.7,12.4c8.2,11.4,20.9,31.8,22.7,71.5
					c-6.8,0.9-12,6.8-12,13.8c0,7.7,6.2,14,14,14s14-6.2,14-14C564.8,488,559.3,482.1,552.2,481.4z"/>
			</g>
		</g>
		<polygon class="st35" points="570.3,636.8 569.8,674.3 465.4,678.3 465.4,678.3 465.2,691.5 576.9,686.7 576.9,635.1 		"/>
	</g>
	<g>
		<g>
			<path class="st36" d="M434.2,513.9c-0.7-36.1-6.1-63.5-23.3-63.5c-17.5,0-22.7,28.3-23.3,65.2c0,0,0,0,0,0l0,2
				c0,7.2,3.8,8.9,8.7,9.7c1.8,0.3,3.6,0.4,5.4,0.4c0.5,1,1.5,1.7,2.7,1.7c1.6,0,2.9-1.3,2.9-2.9v-2.4c0-1.6-1.3-2.9-2.9-2.9
				c-1.5,0-2.6,1.1-2.8,2.5c-3.9-0.2-8.7-1-10.2-3.9c-1.5-2.8-0.6-8.7-0.5-12.8c1-30.7,6-53.7,20.2-53.7c14.2,0,19.2,23,20.2,53.6
				c0.1,3.8,0.8,9.5-0.6,12.3c-1.3,2.6-4.8,3.7-8.3,4.2c-0.4-1.4-1.7-2.3-3.2-2.1c-1.6,0.2-2.7,1.6-2.5,3.3l0.3,2.4
				c0.2,1.6,1.6,2.7,3.3,2.5c1.2-0.1,2.2-1,2.5-2.1c5.6-0.8,11.9-3.2,11.7-10.5l0-2.9C434.2,514,434.2,514,434.2,513.9z"/>
		</g>
	</g>
	<g>
		<g>
			<polygon class="st36" points="411.2,452 408.4,452 408.4,420.7 411.2,420.2 			"/>
		</g>
	</g>
	<g>
		<g>
			<path class="st36" d="M541.7,473.5c-1.5-40.6-14.4-61.4-22.7-72.9c-7.9-10.9-9.7-12.4-9.7-12.4c1.4,0.6,33.2,16.2,35.7,85.1
				L541.7,473.5z"/>
		</g>
	</g>
	<g>
		<g>
			<path class="st37" d="M543.5,474.3c-2.2-42.2-12.3-60.7-20.6-72.1c-7.9-10.9-13.7-13.9-13.7-13.9c1.4,0.6,33.3,17.5,35.8,86.4
				L543.5,474.3z"/>
		</g>
	</g>
	<g>
		<g>
			<path class="st38" d="M557.5,485.9c0,7.7-6.2,14-14,14c-7.7,0-14-6.2-14-14s6.2-14,14-14C551.3,472,557.5,478.2,557.5,485.9z"/>
		</g>
		<g>
			<path class="st39" d="M543.6,500.3c-7.9,0-14.4-6.4-14.4-14.4c0-7.9,6.4-14.4,14.4-14.4c7.9,0,14.4,6.4,14.4,14.4
				C557.9,493.8,551.5,500.3,543.6,500.3z M543.6,472.4c-7.5,0-13.5,6.1-13.5,13.5c0,7.5,6.1,13.5,13.5,13.5s13.5-6.1,13.5-13.5
				C557.1,478.4,551,472.4,543.6,472.4z"/>
		</g>
	</g>
	<g class="st40">
		<g>
			<path class="st13" d="M550.5,498.5l-3.5-7.4l2.5-6.8l7.7-3.3C557.2,481,561.6,490.9,550.5,498.5L550.5,498.5z"/>
		</g>
	</g>
	<g>
		<g>
			<path class="st41" d="M549.8,486.9c0,3.6-2.8,6.6-6.3,6.6s-6.3-2.9-6.3-6.6s2.8-6.6,6.3-6.6S549.8,483.3,549.8,486.9z"/>
		</g>
	</g>
	<g class="st42">
		<g>
			<path class="st13" d="M541.4,471.5l0.8,8.5l-4.7,5.5l-8.4,0.4C529.1,485.9,528.3,474.8,541.4,471.5L541.4,471.5z"/>
		</g>
	</g>
	<g>
		<g>
			<path class="st43" d="M549.2,485.9c0,3.1-2.5,5.6-5.6,5.6c-3.1,0-5.6-2.5-5.6-5.6s2.5-5.6,5.6-5.6
				C546.7,480.3,549.2,482.8,549.2,485.9z"/>
		</g>
		<g>
			<path class="st44" d="M543.6,491.9c-3.3,0-6-2.7-6-6c0-3.3,2.7-6,6-6c3.3,0,6,2.7,6,6C549.6,489.2,546.9,491.9,543.6,491.9z
				 M543.6,480.7c-2.9,0-5.2,2.3-5.2,5.2c0,2.8,2.3,5.2,5.2,5.2c2.9,0,5.2-2.3,5.2-5.2C548.7,483.1,546.4,480.7,543.6,480.7z"/>
		</g>
	</g>
	<g>
		<g>
			<path class="st45" d="M545.8,486.6c0,1.2-1,2.2-2.2,2.2c-1.2,0-2.2-1-2.2-2.2c0-1.2,1-2.2,2.2-2.2
				C544.8,484.4,545.8,485.3,545.8,486.6z"/>
		</g>
	</g>
	<g>
		<g>
			<circle class="st13" cx="543.6" cy="485.9" r="2.2"/>
		</g>
	</g>
	<g>
		<g>
			<path class="st46" d="M404.4,528.2h-1.5c-0.2,0-0.4-0.2-0.4-0.4V523c0-0.2,0.2-0.4,0.4-0.4h1.5c0.2,0,0.4,0.2,0.4,0.4v4.8
				C404.8,528,404.6,528.2,404.4,528.2z"/>
		</g>
	</g>
	<g>
		<g>
			<path class="st46" d="M420.7,528.1l-1.5,0.1c-0.2,0-0.5-0.2-0.5-0.4l-0.4-4.7c0-0.2,0.2-0.5,0.4-0.5l1.5-0.1
				c0.2,0,0.5,0.2,0.5,0.4l0.4,4.7C421.2,527.8,421,528.1,420.7,528.1z"/>
		</g>
	</g>
	<g class="st42">
		<g>
			<path class="st13" d="M542.1,481.1c-3.2,1.1-3.4,4-3.4,4l3.1,0.2l0.8-0.8L542.1,481.1z"/>
		</g>
	</g>
	<g class="st42">
		<g>
			<path class="st13" d="M546.6,490c2.7-2.1,1.8-5,1.8-5l-3,0.9l-0.5,1.1L546.6,490z"/>
		</g>
	</g>
	<g>
		<g>
			<path class="st47" d="M417.3,331.1c0,0-6-23.8-7.1-35.9c-1.1-12-2.3-28.2,11.2-33.7c13.6-5.5,9.4,11.3,9.4,11.3
				s-10.7,7.2-12.9,25.3C416.8,307.9,417.3,331.1,417.3,331.1z"/>
		</g>
	</g>
	<g>
		<g>
			<path class="st47" d="M507.5,330.7c0,0,6.7-23.5,7.8-35.5c1.1-12,2.3-28.2-11.2-33.7c-13.6-5.5-9.4,11.3-9.4,11.3
				s10.7,7.2,12.9,25.3C508.7,307.9,507.5,330.7,507.5,330.7z"/>
		</g>
	</g>
	<g>
		<g>
			<path class="st47" d="M496.4,278.5c0,0-16.5,2.6-27.6-2.6c-3.2-1.5-19,5.2-26.2,3.8c-13.9-2.6-19.9-13.9-20.2-15
				c-0.8-3.4-4.1-8.2,5.9-15.7c13.9-10.4,30.9-7.9,33.8-10.9c2.9-3,5.7-4.9,11.3-4.3c14.8,1.5,15.6,10.2,23.9,11.5
				c10.9,1.7,14.5,6.1,15.2,15.2C513.9,277.8,496.4,278.5,496.4,278.5z"/>
		</g>
	</g>
	<g>
		<g>
			<path class="st48" d="M464.9,235.8c0,0-4.7,3.3-16.3,16.9c-11.7,13.6-17.8,12.8-19.1,13c0,0,10.1,1.7,20.7-12.3
				C460.9,239.4,464.9,235.8,464.9,235.8z"/>
		</g>
	</g>
	<g>
		<g>
			<path class="st48" d="M483.3,278.1c0,0,19.5,2.3,28-7.9c0,0-1.8,10.7-27.5,8.1L483.3,278.1z"/>
		</g>
	</g>
	<g>
		<g>
			<path class="st48" d="M451.2,278.4c-23,3.2-29.6-15.7-29.5-15.4c3.6,11.5,12.8,15.9,19.5,17.7c2,0.6,4,0.9,6,1
				c1.1,0.1,1.7,0.1,1.7,0.1s0,0,0,0c22,0.2,39.8-23,39.8-23C473.8,271.5,460.6,276.5,451.2,278.4z"/>
		</g>
	</g>
	<g>
		<g>
			<defs>
				<path id="SVGID_3_" d="M452.6,313.8c3.8,3.8,3.8,9.9,0,13.7c-3.8,3.8-9.9,3.8-13.7,0c-3.8-3.8-3.8-9.9,0-13.7
					C442.7,310,448.8,310,452.6,313.8z"/>
			</defs>
			<clipPath id="SVGID_4_">
				<use xlink:href="#SVGID_3_"  style="overflow:visible;"/>
			</clipPath>
			<polygon class="st49" points="448.8,331.4 456.4,323.8 456.4,331.4 			"/>
			<polygon class="st49" points="439.1,331.4 435.1,327.4 435.1,317.6 442.7,310 452.5,310 456.4,314 456.4,323.8 448.8,331.4 			
				"/>
			<polygon class="st49" points="442.7,310 435.1,317.6 435.1,310 			"/>
		</g>
	</g>
	<g>
		<g>
			<defs>
				<circle id="SVGID_5_" cx="480.4" cy="321.4" r="9.7"/>
			</defs>
			<clipPath id="SVGID_6_">
				<use xlink:href="#SVGID_5_"  style="overflow:visible;"/>
			</clipPath>
			<polygon class="st50" points="483.5,332 491.1,324.5 491.1,332 			"/>
			<polygon class="st50" points="473.7,332 469.8,328.1 469.8,318.3 477.3,310.7 487.1,310.7 491.1,314.7 491.1,324.5 483.5,332 			
				"/>
			<polygon class="st50" points="477.3,310.7 469.8,318.3 469.8,310.7 			"/>
		</g>
	</g>
	<g>
		<g>
			<path class="st47" d="M490.4,307.1c-2.8-1.9-6-2.8-9.4-2.3c-1.5,0.2-2.6-1.1-2.3-2.6l0,0c0.2-0.7,0.7-1.3,1.4-1.5
				c4.7-1.5,9.5-0.7,13.1,3.1c0.5,0.5,0.6,1.2,0.5,1.9l0,0.1C493.3,307.3,491.6,308,490.4,307.1z"/>
		</g>
	</g>
	<g>
		<g>
			<g>
				<ellipse class="st51" cx="480.4" cy="321.3" rx="2.5" ry="3.1"/>
			</g>
		</g>
		<g>
			<g>
				<path class="st51" d="M445.8,317.9c-1.4,0-2.5,1.4-2.5,3.1c0,1.7,1.1,3.1,2.5,3.1c1.4,0,2.5-1.4,2.5-3.1
					C448.2,319.3,447.1,317.9,445.8,317.9z"/>
			</g>
		</g>
	</g>
	<g>
		<g>
			<path class="st52" d="M490.3,318.1c-1.4-4.2-5.2-7.2-9.8-7.2c-5.2,0-9.5,3.8-10.2,8.8c0,0,0,0,0,0c-1.8-2-4.4-3.4-7.4-3.4
				c-2.7,0-5.1,1.1-6.9,2.8c-0.9-4.8-5.1-8.5-10.2-8.5c-4.6,0-8.5,3-9.8,7.2c-17.3-6.1-21.5-6.9-22.7-6.7c-0.3,0.1-0.6,0.6-0.7,0.9
				l0.9,0.4c0,0,0.2-0.2,0.2-0.2c1.5-0.2,12.2,3.3,21.9,6.8c-0.1,0.7-0.2,1.4-0.2,2.1c0,5.7,4.7,10.4,10.4,10.4c3.8,0,7.2-2.1,9-5.2
				c0.3,0,0.6-0.2,0.9-0.3c0.3-0.1,0.6-0.4,0.8-0.6c0.4-0.5,0.7-1.1,0.8-1.8c0.2-1.6-0.1-2.8-0.6-3.5c1.6-1.6,3.8-2.6,6.2-2.6
				c2.7,0,5,1.2,6.6,3.1c-0.4,0.7-0.7,1.8-0.5,3.3c0.1,0.6,0.4,1.3,0.8,1.8c0.2,0.2,0.5,0.5,0.8,0.6c0.3,0.1,0.6,0.3,0.9,0.3
				c1.8,3.1,5.1,5.2,9,5.2c5.7,0,10.4-4.7,10.4-10.4c0-0.7-0.1-1.4-0.2-2.1c9.9-3.5,20.6-7.1,21.8-6.8c0,0,1.1-0.5,1.1-0.5
				C513.2,311.2,512.7,310.1,490.3,318.1z M445.8,330.3c-5.1,0-9.3-4.2-9.3-9.3c0-5.1,4.2-9.3,9.3-9.3c5.1,0,9.3,4.2,9.3,9.3
				C455.1,326.1,450.9,330.3,445.8,330.3z M456.1,324c-0.1,0.2-0.2,0.4-0.4,0.6c-0.1,0.1-0.2,0.1-0.3,0.2c0.4-1.1,0.7-2.2,0.7-3.5
				c0.1,0.2,0.2,0.4,0.2,0.6C456.4,322.6,456.4,323.4,456.1,324z M470.5,324.9c-0.2-0.2-0.3-0.4-0.4-0.6c-0.2-0.7-0.3-1.4-0.2-2.1
				c0-0.2,0.1-0.4,0.2-0.6c0,1.2,0.3,2.4,0.7,3.5C470.7,325,470.6,325,470.5,324.9z M480.4,330.5c-5.1,0-9.3-4.2-9.3-9.3
				c0-5.1,4.2-9.3,9.3-9.3s9.3,4.2,9.3,9.3C489.7,326.4,485.6,330.5,480.4,330.5z"/>
		</g>
	</g>
	<g>
		<g>
			<path class="st47" d="M435.8,306.9c2.8-1.9,6-2.8,9.4-2.3c1.5,0.2,2.6-1.1,2.3-2.6l0,0c-0.2-0.7-0.7-1.3-1.4-1.5
				c-4.7-1.5-9.5-0.7-13.1,3.1c-0.5,0.5-0.6,1.2-0.5,1.9l0,0.1C432.9,307,434.6,307.7,435.8,306.9z"/>
		</g>
	</g>
	<g>
		<g>
			<path class="st37" d="M390.3,515.3c0,0-2.7-55.1,15.9-62.2c4.2-1.6,8.2-0.6,11.1,0.9c9.9,5.2,12.3,24.1,13.1,32.6
				c1,11.1,2.5,27.2,0.5,31.7c0,0,0.7-25.6-3.6-44.3c-4.3-18.7-12.4-20.7-17.6-20.5c-5.2,0.3-11.2,6.1-14.5,17.4
				C391.9,482.2,390.3,515.3,390.3,515.3z"/>
		</g>
	</g>
	<g>
		<g>
			<path class="st37" d="M387.6,519.3c0-0.2,1.3,4.9,6.2,6c4.9,1.1,7.5-1.5,7.5-1.5s-0.3,3.2,0.2,4
				C401.6,527.8,388.1,529.2,387.6,519.3z"/>
		</g>
	</g>
	<g>
		<g>
			<path class="st37" d="M434.2,515.6c0-0.1,0.2,2.3-0.8,4.2c-1.7,3.5-3.3,3.6-5.1,4.6c-4.5,2.4-6.1-0.8-6.1-0.8s0.6,3,0.3,3.9
				C422.5,527.5,435.2,527.1,434.2,515.6z"/>
		</g>
	</g>
	<g>
		<g>
			<polygon class="st37" points="408.4,420.7 411.2,420.2 411,421.6 408.4,422.1 			"/>
		</g>
	</g>
</g>
</svg>
